<svg version="1.1" id="Layer_1" xmlns="http://www.w3.org/2000/svg" xmlns:xlink="http://www.w3.org/1999/xlink" x="0px" y="0px"
	 width="100%" viewBox="0 0 1024 1024" enable-background="new 0 0 1024 1024" xml:space="preserve">
<path fill="#16182C" opacity="1.000000" stroke="none" 
	d="
M578.000000,1025.000000 
	C385.333344,1025.000000 193.166672,1025.000000 1.000000,1025.000000 
	C1.000000,683.666687 1.000000,342.333344 1.000000,1.000000 
	C342.333344,1.000000 683.666687,1.000000 1025.000000,1.000000 
	C1025.000000,342.333344 1025.000000,683.666687 1025.000000,1025.000000 
	C876.166687,1025.000000 727.333313,1025.000000 578.000000,1025.000000 
M443.395050,410.789307 
	C441.719879,411.051086 440.044708,411.312866 437.544617,411.558197 
	C437.007477,411.669098 436.470337,411.779999 435.246796,411.701935 
	C433.356323,412.390747 431.465820,413.079559 429.054749,413.710022 
	C428.714752,413.781158 428.374786,413.852295 427.349945,413.795013 
	C425.377289,414.054565 423.272614,413.957397 421.453217,414.630890 
	C408.559387,419.404083 395.562714,423.959167 382.938232,429.374939 
	C376.651520,432.071838 371.080811,436.437683 364.638184,440.249237 
	C364.467682,440.342926 364.297211,440.436615 363.464386,440.498932 
	C356.771271,445.705566 350.078186,450.912201 342.868622,456.486725 
	C342.248566,457.060089 341.628510,457.633423 340.331329,458.228302 
	C339.228058,458.952515 338.009766,459.548492 337.038177,460.419556 
	C309.438049,485.164215 290.021027,515.238953 278.755707,550.525635 
	C277.270264,555.178589 276.785889,560.151123 275.660217,565.636902 
	C275.645050,566.320679 275.629883,567.004395 275.171967,568.192688 
	C274.325714,570.521912 272.996338,572.792297 272.704895,575.189026 
	C267.413879,618.700745 271.311401,660.794495 291.300873,700.661499 
	C303.582886,725.156738 319.624207,746.527588 340.842896,763.866943 
	C371.700226,789.082703 407.038605,803.840210 446.626709,808.287109 
	C475.685883,811.551270 504.241852,808.793213 531.850342,799.183289 
	C554.291260,791.372131 575.474854,780.948792 593.339966,764.770142 
	C595.125000,763.153625 597.119202,761.768066 600.080322,759.437988 
	C600.467407,762.929688 600.710327,765.121155 600.774109,767.015686 
	C601.160950,770.512817 601.547791,774.009888 602.613464,778.258301 
	C609.014648,778.516968 615.415771,778.775696 622.464417,779.364929 
	C634.374512,779.310974 646.284668,779.256958 659.154846,779.473816 
	C659.981750,779.566589 660.806396,779.706482 661.635864,779.744690 
	C668.001587,780.038208 668.425476,779.631409 668.510986,773.236511 
	C668.522156,772.403870 668.522827,771.571045 668.523865,770.738342 
	C668.604614,705.784241 668.690430,640.830200 668.739624,575.876099 
	C668.741150,573.909058 668.361816,571.941711 668.255554,569.166199 
	C668.116394,568.104004 667.977234,567.041809 668.123291,565.210449 
	C668.031921,552.151978 667.940491,539.093506 668.131470,525.236328 
	C668.046204,517.465515 667.960938,509.694702 668.174011,501.043335 
	C668.254028,484.998688 668.334045,468.954010 668.740417,452.631042 
	C668.634399,452.124390 668.528442,451.617737 668.487549,450.226288 
	C668.249573,447.168488 668.011597,444.110687 667.411011,440.470856 
	C667.268616,440.384552 667.126709,440.223358 666.983826,440.222504 
	C645.691040,440.095062 624.398193,439.957611 603.105225,439.888214 
	C600.190857,439.878723 598.984863,441.696991 599.119141,444.486938 
	C599.230957,446.812653 599.865845,449.252991 599.350037,451.424225 
	C598.948303,453.115540 597.133057,454.471069 595.403748,455.450867 
	C595.196228,455.309021 594.988708,455.167206 594.513062,454.449432 
	C592.615784,453.089722 590.718567,451.730011 588.726624,450.258148 
	C588.726624,450.258148 588.591309,450.201202 588.463501,449.570923 
	C586.279236,448.102539 584.095032,446.634155 581.879395,445.110931 
	C581.879395,445.110931 581.816223,445.113373 581.665588,444.474762 
	C579.094910,442.665466 576.524292,440.856171 573.564636,438.523895 
	C564.704590,434.050140 555.844604,429.576416 546.390076,424.826569 
	C545.960938,424.744507 545.531860,424.662445 544.746643,424.061737 
	C537.501038,421.697144 530.255432,419.332550 522.475586,416.756287 
	C522.097290,416.716003 521.718933,416.675751 520.837158,416.198639 
	C517.542358,415.443115 514.247498,414.687592 510.399078,413.759338 
	C510.012451,413.760071 509.625793,413.760803 508.705811,413.336731 
	C503.514618,412.655060 498.323425,411.973419 492.265808,411.185181 
	C491.102844,411.144684 489.939850,411.104187 488.383759,410.548553 
	C475.167145,407.549286 461.966400,407.250397 447.993164,410.686249 
	C446.675903,410.774597 445.358643,410.862946 443.395050,410.789307 
M841.754456,392.337860 
	C841.758667,372.673370 841.787720,353.008881 841.756531,333.344452 
	C841.741455,323.810547 840.310913,322.318390 830.718140,322.267700 
	C813.720398,322.177887 796.721863,322.226868 779.723694,322.225647 
	C770.777771,322.224976 769.290894,323.482208 769.276367,332.624237 
	C769.222412,366.598877 769.264648,400.574005 769.406128,434.548401 
	C769.475403,451.166046 770.024109,467.782288 770.044067,484.399506 
	C770.141846,565.890747 770.079773,647.382202 770.259399,728.873230 
	C770.275452,736.150696 770.588989,743.713013 772.526978,750.650696 
	C780.356995,778.681274 801.988464,791.029419 827.966736,792.735840 
	C839.976990,793.524658 840.880371,792.219177 840.886658,780.395935 
	C840.931641,695.763794 840.912048,611.131592 841.014282,526.499573 
	C841.033813,510.347168 841.603088,494.196106 841.735535,478.042938 
	C841.866394,462.085938 841.767334,446.127014 841.764893,430.168945 
	C841.763000,417.875031 841.754517,405.581116 841.754456,392.337860 
M176.988937,773.274353 
	C198.368546,770.141296 212.261398,747.017151 203.357315,725.866638 
	C193.323883,702.033447 165.565140,698.846863 149.294113,712.697693 
	C135.140182,724.746277 133.033691,747.986877 144.863815,761.076904 
	C153.453979,770.581970 163.754898,774.178711 176.988937,773.274353 
z"/>
<path fill="#8050F1" opacity="1.000000" stroke="none" 
	d="
M488.776886,411.063660 
	C489.939850,411.104187 491.102844,411.144684 492.887756,411.473450 
	C494.691925,412.133636 495.874146,412.505493 497.194275,413.149780 
	C498.883911,413.665985 500.435669,413.909790 502.365936,414.155945 
	C503.753448,414.186401 504.762482,414.214478 506.010651,414.496368 
	C507.835083,415.103394 509.420319,415.456604 511.297211,415.808197 
	C511.781006,415.777252 511.973206,415.747894 512.440918,415.901031 
	C514.142883,416.641907 515.569336,417.200317 517.400879,417.789429 
	C518.611816,417.730438 519.417725,417.640686 520.452515,417.833923 
	C523.776978,419.008728 526.872498,419.900513 530.269775,420.796692 
	C530.771240,420.777069 530.970947,420.753052 531.459595,420.924988 
	C535.161438,422.305756 538.574524,423.490631 542.246948,424.869080 
	C543.342346,425.251862 544.178284,425.441101 545.201843,425.871704 
	C545.944397,426.317047 546.499390,426.521088 547.298096,426.913513 
	C548.129211,427.272461 548.716736,427.442993 549.450684,427.897614 
	C550.726318,428.691742 551.855591,429.201782 553.301514,429.873413 
	C558.136475,432.361511 562.654724,434.688049 567.314697,437.267120 
	C568.297913,437.940216 569.139404,438.360748 570.242676,438.848877 
	C570.681396,438.950928 570.858276,438.985413 571.201294,439.269470 
	C572.220398,439.995941 573.073486,440.472778 574.135437,441.222900 
	C576.834961,442.701904 579.325623,443.907654 581.816223,445.113403 
	C581.816223,445.113373 581.879395,445.110931 581.902222,445.482178 
	C584.147156,447.302673 586.369263,448.751953 588.591309,450.201202 
	C588.591309,450.201202 588.726624,450.258148 588.767456,450.632263 
	C589.015381,451.609863 589.222473,452.213348 588.981567,452.844482 
	C583.304749,452.614349 579.477478,454.893097 575.933044,458.706848 
	C574.162476,460.611969 570.968018,461.326874 568.298889,462.228760 
	C565.204773,463.274170 562.006104,464.058350 558.804077,464.720245 
	C556.387329,465.219879 553.847351,465.800751 551.443787,465.553375 
	C545.539185,464.945831 539.703735,463.353241 533.800781,463.106964 
	C520.396240,462.547729 506.959290,462.206390 493.553650,462.529053 
	C488.759674,462.644409 483.965302,464.770172 479.290649,466.335297 
	C478.177612,466.707916 477.544434,468.513702 475.978210,470.616882 
	C480.115875,470.808685 482.974579,470.563263 485.648468,471.154114 
	C489.618256,472.031311 494.668762,471.406372 495.566620,477.068848 
	C477.595398,475.456543 460.045807,474.582062 442.544067,477.198730 
	C438.881866,477.746246 435.392517,479.449738 431.736328,480.655060 
	C431.649139,480.689575 431.462067,480.703278 431.046783,480.549377 
	C429.752747,480.270844 428.873993,480.146240 427.905518,479.662292 
	C426.011597,472.980774 420.301605,473.681946 416.302338,474.417847 
	C407.585144,476.021942 399.067139,473.414368 389.933014,475.876495 
	C379.429443,478.707672 367.604797,476.453186 356.303162,477.559875 
	C352.346039,477.947357 347.956970,475.004730 343.874603,478.631470 
	C344.620514,477.163116 345.366455,475.694763 346.112366,474.226379 
	C345.908569,474.068207 345.704773,473.910034 345.500977,473.751831 
	C343.802338,474.909912 342.103699,476.068024 340.405060,477.226105 
	C340.204529,476.957947 340.003998,476.689789 339.803467,476.421631 
	C340.959137,474.751465 342.114807,473.081268 344.834961,469.150085 
	C338.212494,473.899475 340.701019,468.935455 339.525238,467.611755 
	C337.348602,469.229156 335.517365,470.999695 333.338287,472.045105 
	C332.158478,472.611145 330.385315,471.940369 328.982361,471.508850 
	C333.059418,466.862396 337.033936,462.534607 341.008423,458.206787 
	C341.628510,457.633423 342.248566,457.060089 343.461121,456.310547 
	C349.557922,452.219818 355.104645,448.362762 360.537079,444.350891 
	C361.919922,443.329651 362.940002,441.817108 364.126740,440.530304 
	C364.297211,440.436615 364.467682,440.342926 365.273102,440.199585 
	C366.962311,439.714630 368.047119,439.340790 369.066101,438.834442 
	C378.055145,434.367828 387.032471,429.877625 396.268311,425.380676 
	C397.026245,424.944122 397.529114,424.521240 398.367249,423.982117 
	C399.848480,423.575897 400.994446,423.285950 402.204834,423.078094 
	C402.269287,423.160217 402.555969,423.183502 402.555969,423.183502 
	C402.555969,423.183502 402.737793,422.950165 403.020538,422.751343 
	C404.567932,422.044189 405.832611,421.535828 407.174927,421.115845 
	C407.252533,421.204193 407.578339,421.235413 407.578339,421.235413 
	C407.578339,421.235413 407.807983,420.987701 408.079651,420.862122 
	C408.907959,420.516052 409.464630,420.295593 410.199951,420.150726 
	C410.990814,419.827545 411.603027,419.428772 412.521545,418.916290 
	C413.888702,418.564392 414.949524,418.326202 416.284302,418.286133 
	C418.696899,417.677307 420.835480,416.870392 423.274109,415.978668 
	C425.038757,415.844879 426.503357,415.795929 428.387817,415.789185 
	C433.121094,414.749329 437.434479,413.667236 442.115723,412.679504 
	C442.984894,412.772919 443.486237,412.772003 444.376587,412.815247 
	C446.639648,412.388184 448.513702,411.916992 450.819519,411.457001 
	C454.188324,411.313995 457.125305,411.159760 460.436096,411.160400 
	C466.860840,411.230804 472.911713,411.146332 479.354980,411.109985 
	C481.062622,411.196106 482.377869,411.234100 483.804779,411.402710 
	C484.401062,411.467285 484.885712,411.401184 485.716980,411.386536 
	C486.968018,411.313263 487.872437,411.188477 488.776886,411.063660 
z"/>
<path fill="#5025A8" opacity="1.000000" stroke="none" 
	d="
M600.953308,767.312561 
	C600.710327,765.121155 600.467407,762.929688 600.080322,759.437988 
	C597.119202,761.768066 595.125000,763.153625 593.339966,764.770142 
	C575.474854,780.948792 554.291260,791.372131 531.850342,799.183289 
	C504.241852,808.793213 475.685883,811.551270 446.626709,808.287109 
	C407.038605,803.840210 371.700226,789.082703 340.842896,763.866943 
	C319.624207,746.527588 303.582886,725.156738 291.300873,700.661499 
	C271.311401,660.794495 267.413879,618.700745 272.704895,575.189026 
	C272.996338,572.792297 274.325714,570.521912 275.491211,568.361755 
	C274.904236,573.901123 273.328156,579.257812 273.218323,584.644348 
	C272.897491,600.382385 273.161621,616.132385 273.165283,632.302307 
	C275.394196,643.512390 277.654266,654.297852 279.977966,665.455383 
	C284.675812,677.234070 289.310059,688.640747 294.037262,700.399780 
	C299.163147,713.043274 306.343201,723.985535 315.198364,734.268921 
	C320.738739,740.669983 326.013794,746.866333 331.495636,752.874084 
	C333.014404,754.538574 335.147522,755.642456 337.195923,757.283203 
	C340.241852,762.245056 345.418518,761.742065 349.756287,763.066101 
	C352.989532,764.053101 356.641663,764.506592 354.766479,769.501465 
	C354.554291,770.066711 355.125031,771.519348 355.595703,771.656189 
	C360.599731,773.111389 365.628448,774.513611 370.716187,775.630554 
	C372.341156,775.987366 374.220764,775.105652 375.882446,775.387756 
	C383.487183,776.678955 391.035278,778.308533 398.646698,779.553711 
	C402.219666,780.138123 405.915649,779.939026 409.510498,780.428284 
	C416.776337,781.417236 423.913147,781.607483 431.155914,784.681763 
	C436.815216,787.083923 444.568848,785.264038 451.254822,784.334412 
	C457.881500,783.413086 464.350098,781.309204 470.855225,779.599121 
	C472.086914,779.275330 473.232086,778.462219 474.300537,777.709351 
	C476.867706,775.900452 479.110199,773.132751 481.940979,772.292542 
	C489.378052,770.085083 496.987213,766.196716 504.747589,771.814026 
	C505.793976,772.571411 507.780243,772.904419 508.966797,772.460266 
	C522.583313,767.363220 536.771118,768.037476 550.904358,767.961975 
	C553.363647,767.948853 555.813599,767.315796 558.278992,767.091309 
	C563.170959,766.645874 568.410400,764.988525 572.895813,766.163147 
	C581.928406,768.528687 588.914673,766.451172 594.958130,759.826172 
	C597.247803,757.316040 599.820679,756.444275 603.030640,758.381348 
	C603.300659,762.267334 603.530151,765.776001 603.759583,769.284668 
	C606.752258,767.266846 607.933594,764.674194 609.946716,763.300415 
	C618.150391,757.702271 627.608521,755.422791 637.331055,754.843384 
	C643.960815,754.448242 650.662476,755.188599 657.328308,755.499573 
	C660.658752,755.654907 662.922241,756.874634 663.206055,760.792786 
	C663.397949,763.442444 664.447937,766.029968 665.114136,768.645325 
	C665.705933,768.579224 666.297668,768.513062 666.889404,768.446899 
	C666.889404,760.276611 666.889404,752.106262 666.906128,743.475403 
	C666.908447,733.316528 666.893982,723.618103 666.889587,713.456299 
	C666.891785,701.969910 666.883911,690.946960 666.894348,679.463623 
	C666.919861,665.989380 666.927063,652.975464 666.951172,639.497192 
	C666.964539,627.014771 666.960815,614.996704 666.978210,602.511780 
	C667.028076,595.592285 666.934265,589.136047 667.129150,582.688538 
	C667.257446,578.444031 667.801941,574.212097 668.160095,569.974548 
	C668.361816,571.941711 668.741150,573.909058 668.739624,575.876099 
	C668.690430,640.830200 668.604614,705.784241 668.523865,770.738342 
	C668.522827,771.571045 668.522156,772.403870 668.510986,773.236511 
	C668.425476,779.631409 668.001587,780.038208 661.635864,779.744690 
	C660.806396,779.706482 659.981750,779.566589 658.343506,779.359619 
	C645.627136,779.175110 633.722046,779.104736 621.816956,779.034424 
	C615.415771,778.775696 609.014648,778.516968 602.228149,777.582520 
	C601.546326,773.708679 601.249817,770.510620 600.953308,767.312561 
z"/>
<path fill="#7E4EEE" opacity="1.000000" stroke="none" 
	d="
M496.004608,477.046326 
	C494.668762,471.406372 489.618256,472.031311 485.648468,471.154114 
	C482.974579,470.563263 480.115875,470.808685 475.978210,470.616882 
	C477.544434,468.513702 478.177612,466.707916 479.290649,466.335297 
	C483.965302,464.770172 488.759674,462.644409 493.553650,462.529053 
	C506.959290,462.206390 520.396240,462.547729 533.800781,463.106964 
	C539.703735,463.353241 545.539185,464.945831 551.443787,465.553375 
	C553.847351,465.800751 556.387329,465.219879 558.804077,464.720245 
	C562.006104,464.058350 565.204773,463.274170 568.298889,462.228760 
	C570.968018,461.326874 574.162476,460.611969 575.933044,458.706848 
	C579.477478,454.893097 583.304749,452.614349 589.264954,452.941010 
	C591.022339,453.683167 592.048340,454.356445 593.196594,455.301575 
	C594.230469,456.238861 595.142090,456.904297 596.314514,457.748596 
	C597.095581,458.287109 597.615845,458.646790 598.290649,459.263306 
	C600.852905,461.392914 602.215942,460.126068 602.408081,457.767853 
	C602.614197,455.236053 602.138062,452.648682 601.997253,449.645905 
	C601.993347,447.443756 601.951843,445.681244 602.052612,443.650116 
	C602.515991,442.633911 602.837097,441.886322 603.616821,441.146729 
	C625.308228,441.120758 646.540894,441.086823 667.773621,441.052887 
	C668.011597,444.110687 668.249573,447.168488 668.301453,450.812286 
	C668.214905,451.901978 668.314453,452.405670 668.414062,452.909363 
	C668.334045,468.954010 668.254028,484.998688 667.717163,501.414032 
	C666.511597,500.121826 665.263550,498.502899 665.112549,496.787415 
	C664.734375,492.490143 665.137878,488.119415 664.690491,483.834229 
	C664.263306,479.742523 661.735779,478.297821 659.097900,480.631897 
	C653.679199,485.426514 647.175720,485.498901 640.747192,485.391998 
	C626.871887,485.161255 613.002563,484.520050 599.134094,483.965729 
	C596.660828,483.866852 594.210999,483.261536 591.736572,483.095367 
	C587.968384,482.842377 583.967041,481.889557 580.451782,482.773376 
	C566.450867,486.293640 552.427734,484.447235 538.461731,483.390137 
	C533.459595,483.011505 530.037354,483.574371 527.745911,488.141022 
	C526.289917,487.455811 525.059631,486.939514 523.817017,486.116150 
	C523.291260,483.196625 522.190125,483.727020 520.597290,485.125793 
	C512.197754,482.339233 504.101166,479.692780 496.004608,477.046326 
M579.038635,460.157379 
	C579.038635,460.157379 578.989441,459.843414 578.989441,459.843414 
	C578.989441,459.843414 578.908752,460.148895 579.038635,460.157379 
z"/>
<path fill="#703FD9" opacity="1.000000" stroke="none" 
	d="
M273.196472,631.877686 
	C273.161621,616.132385 272.897491,600.382385 273.218323,584.644348 
	C273.328156,579.257812 274.904236,573.901123 275.712585,568.109497 
	C275.629883,567.004395 275.645050,566.320679 276.014252,565.100891 
	C277.479980,562.924255 278.591644,561.283630 279.837769,559.995178 
	C280.945862,562.940857 282.577026,562.926758 284.700500,561.674561 
	C290.380707,558.324951 295.792938,557.879761 300.898010,562.991638 
	C301.644257,563.738892 304.509827,563.785400 304.567322,563.597412 
	C305.931335,559.136230 309.776001,560.005432 313.003021,559.252625 
	C316.682312,558.394226 320.620148,557.579285 323.736023,555.618103 
	C328.521759,552.605713 333.011902,552.561584 337.949738,554.551758 
	C340.248230,555.478210 342.632263,556.192322 344.831177,557.328125 
	C337.236664,574.973877 334.195648,593.181213 333.421783,611.868286 
	C328.837097,609.148743 324.942291,609.234558 320.861847,612.537842 
	C319.173859,613.904358 316.591858,614.481201 314.333191,614.773438 
	C304.951965,615.987061 295.545807,617.021606 286.135162,617.989380 
	C280.121704,618.607788 277.202057,621.276245 275.940552,627.074951 
	C275.566681,628.793518 274.140472,630.283142 273.196472,631.877686 
z"/>
<path fill="#7645E1" opacity="1.000000" stroke="none" 
	d="
M667.849121,526.035034 
	C667.940491,539.093506 668.031921,552.151978 667.638306,565.474121 
	C666.440613,564.200134 665.391479,562.726196 665.086060,561.111511 
	C664.472107,557.865906 664.429138,554.514099 663.848572,551.259888 
	C663.014099,546.582092 661.266968,545.844177 656.847534,547.657227 
	C653.677185,548.957764 650.468506,550.644653 647.148560,551.018127 
	C632.216553,552.697937 617.494080,550.618896 602.839783,547.838318 
	C598.187622,546.955688 593.250488,545.222656 589.593567,550.220337 
	C587.012024,545.776917 584.982422,541.398071 582.234009,537.529907 
	C576.591797,529.588989 570.564514,521.921692 565.090454,514.075134 
	C575.672852,510.307434 585.878235,508.924622 596.304626,513.277588 
	C597.430481,513.747620 599.121277,512.815735 600.559448,512.595947 
	C604.916260,511.929871 609.492065,510.113464 613.598816,510.859009 
	C628.333496,513.533936 642.517761,510.216919 656.653259,507.479614 
	C661.520020,506.537170 662.804688,508.182404 663.714050,511.588654 
	C664.514648,514.587708 664.363647,517.835571 665.105469,520.857544 
	C665.557007,522.697021 666.904297,524.316650 667.849121,526.035034 
z"/>
<path fill="#7A4AE8" opacity="1.000000" stroke="none" 
	d="
M667.990295,525.635681 
	C666.904297,524.316650 665.557007,522.697021 665.105469,520.857544 
	C664.363647,517.835571 664.514648,514.587708 663.714050,511.588654 
	C662.804688,508.182404 661.520020,506.537170 656.653259,507.479614 
	C642.517761,510.216919 628.333496,513.533936 613.598816,510.859009 
	C609.492065,510.113464 604.916260,511.929871 600.559448,512.595947 
	C599.121277,512.815735 597.430481,513.747620 596.304626,513.277588 
	C585.878235,508.924622 575.672852,510.307434 564.834229,513.883545 
	C553.462280,503.355377 541.126282,495.250183 527.971619,488.309937 
	C530.037354,483.574371 533.459595,483.011505 538.461731,483.390137 
	C552.427734,484.447235 566.450867,486.293640 580.451782,482.773376 
	C583.967041,481.889557 587.968384,482.842377 591.736572,483.095367 
	C594.210999,483.261536 596.660828,483.866852 599.134094,483.965729 
	C613.002563,484.520050 626.871887,485.161255 640.747192,485.391998 
	C647.175720,485.498901 653.679199,485.426514 659.097900,480.631897 
	C661.735779,478.297821 664.263306,479.742523 664.690491,483.834229 
	C665.137878,488.119415 664.734375,492.490143 665.112549,496.787415 
	C665.263550,498.502899 666.511597,500.121826 667.567993,501.854309 
	C667.960938,509.694702 668.046204,517.465515 667.990295,525.635681 
z"/>
<path fill="#703FD9" opacity="1.000000" stroke="none" 
	d="
M589.820129,550.515991 
	C593.250488,545.222656 598.187622,546.955688 602.839783,547.838318 
	C617.494080,550.618896 632.216553,552.697937 647.148560,551.018127 
	C650.468506,550.644653 653.677185,548.957764 656.847534,547.657227 
	C661.266968,545.844177 663.014099,546.582092 663.848572,551.259888 
	C664.429138,554.514099 664.472107,557.865906 665.086060,561.111511 
	C665.391479,562.726196 666.440613,564.200134 667.495667,565.858643 
	C667.977234,567.041809 668.116394,568.104004 668.207825,569.570374 
	C667.801941,574.212097 667.257446,578.444031 667.129150,582.688538 
	C666.934265,589.136047 667.028076,595.592285 666.696899,602.301880 
	C665.829102,601.042358 665.079895,599.567139 664.728943,598.002563 
	C662.877075,589.744324 656.866455,587.082520 650.343811,592.470825 
	C646.605225,595.559265 643.344116,595.039551 639.365845,594.313721 
	C630.423523,592.682251 621.451782,591.160156 612.442688,589.965820 
	C606.881470,589.228577 605.951904,590.391846 606.488831,595.918213 
	C606.834900,599.479858 606.465698,602.598694 602.445923,603.517883 
	C602.265625,599.372498 602.131409,595.685669 602.150085,591.708984 
	C601.927490,589.946533 601.552002,588.473877 601.113037,586.649353 
	C600.308105,584.877319 599.566711,583.457214 598.748474,581.759033 
	C598.654541,581.097351 598.637512,580.713745 598.728271,579.910522 
	C598.354309,576.935547 598.150513,574.287903 597.338074,571.842529 
	C594.962158,564.690430 592.343567,557.619019 589.820129,550.515991 
z"/>
<path fill="#302360" opacity="1.000000" stroke="none" 
	d="
M841.751709,392.812531 
	C841.754517,405.581116 841.763000,417.875031 841.764893,430.168945 
	C841.767334,446.127014 841.866394,462.085938 841.735535,478.042938 
	C841.603088,494.196106 841.033813,510.347168 841.014282,526.499573 
	C840.912048,611.131592 840.931641,695.763794 840.886658,780.395935 
	C840.880371,792.219177 839.976990,793.524658 827.966736,792.735840 
	C801.988464,791.029419 780.356995,778.681274 772.526978,750.650696 
	C770.588989,743.713013 770.275452,736.150696 770.259399,728.873230 
	C770.079773,647.382202 770.141846,565.890747 770.044067,484.399506 
	C770.024109,467.782288 769.475403,451.166046 769.406128,434.548401 
	C769.264648,400.574005 769.222412,366.598877 769.276367,332.624237 
	C769.290894,323.482208 770.777771,322.224976 779.723694,322.225647 
	C796.721863,322.226868 813.720398,322.177887 830.718140,322.267700 
	C840.310913,322.318390 841.741455,323.810547 841.756531,333.344452 
	C841.787720,353.008881 841.758667,372.673370 841.751709,392.812531 
M774.989990,749.675171 
	C775.199524,750.517273 775.409058,751.359375 775.722717,752.950195 
	C776.317749,754.671021 776.764893,756.460693 777.530151,758.102173 
	C787.738464,779.998840 805.902344,789.157898 829.099182,789.961243 
	C837.226868,790.242737 837.949097,789.341431 837.961853,781.228394 
	C838.013855,748.129456 838.048401,715.030518 838.035095,681.931580 
	C838.034302,679.970581 837.558777,678.009766 837.346680,675.106689 
	C837.524719,667.835022 837.855042,660.563171 837.842773,653.291809 
	C837.826965,643.884705 837.537781,634.477966 837.578430,624.146179 
	C837.515991,611.445312 837.453491,598.744446 837.612610,585.188049 
	C837.629211,583.134521 837.645752,581.080994 837.915283,578.212463 
	C837.764221,575.789124 837.613159,573.365845 837.611877,570.180176 
	C837.899963,558.406738 838.251953,546.634277 838.423706,534.859131 
	C838.459106,532.426147 837.823914,529.983276 837.857605,526.540039 
	C837.890869,521.713806 837.924133,516.887512 838.363708,511.192688 
	C838.513977,509.876221 838.792969,508.560028 838.795776,507.243256 
	C838.856323,478.813873 838.900818,450.384491 838.882629,421.955109 
	C838.881592,420.348328 838.316406,418.741913 838.054016,416.186310 
	C837.914246,411.461975 837.774475,406.737671 837.895081,401.277740 
	C837.811279,400.514740 837.727478,399.751770 837.900818,398.138702 
	C837.772583,396.097229 837.644348,394.055725 837.819031,391.209106 
	C838.003662,388.896790 838.332581,386.585571 838.349915,384.272003 
	C838.487244,365.852112 838.565491,347.431793 838.794617,328.320587 
	C837.409546,324.643829 835.143250,324.324524 831.297058,326.262054 
	C827.205750,326.226837 823.114380,326.191620 818.118530,325.872131 
	C809.411255,325.955017 800.704041,326.037903 791.072510,325.973297 
	C787.244202,325.944641 783.415222,325.855225 779.587830,325.900421 
	C772.387451,325.985413 772.232361,326.106567 772.233398,333.131714 
	C772.237244,359.106567 772.276794,385.081482 772.342834,411.056244 
	C772.347900,413.038452 772.664551,415.019867 772.525269,417.892670 
	C772.469177,430.986389 772.337646,444.080383 772.386780,457.173706 
	C772.414124,464.452362 772.742798,471.729858 772.660461,479.792236 
	C772.730530,489.508423 772.800659,499.224579 772.576050,509.710419 
	C772.659058,523.895264 772.742065,538.080078 772.555603,553.129395 
	C772.641174,567.100342 772.726807,581.071289 772.633545,595.862732 
	C772.665344,609.263672 772.697144,622.664673 772.528564,636.855164 
	C772.554565,649.869995 772.580505,662.884827 772.394714,676.838196 
	C772.454102,695.190063 772.513428,713.541870 772.428589,732.729797 
	C772.758118,736.485535 773.087585,740.241211 773.383545,744.667542 
	C773.909790,746.118835 774.436096,747.570129 774.989990,749.675171 
z"/>
<path fill="#5025A8" opacity="1.000000" stroke="none" 
	d="
M176.544189,773.309570 
	C163.754898,774.178711 153.453979,770.581970 144.863815,761.076904 
	C133.033691,747.986877 135.140182,724.746277 149.294113,712.697693 
	C165.565140,698.846863 193.323883,702.033447 203.357315,725.866638 
	C212.261398,747.017151 198.368546,770.141296 176.544189,773.309570 
M141.023788,749.820496 
	C142.826721,757.571472 149.394943,757.775818 155.169312,757.894287 
	C168.189865,758.161560 181.292877,759.956726 194.165497,755.436829 
	C197.969482,754.101196 200.889755,753.047058 202.149872,748.384827 
	C202.360291,744.561646 202.570709,740.738525 202.841049,736.046631 
	C203.270599,727.357849 199.331009,720.890198 192.281387,715.191650 
	C184.787994,705.128418 160.427689,705.337830 151.248917,714.035095 
	C143.341980,719.366272 139.825333,726.803101 140.360229,736.997070 
	C140.538223,741.042603 140.716202,745.088074 141.023788,749.820496 
z"/>
<path fill="#5025A8" opacity="1.000000" stroke="none" 
	d="
M279.703308,559.643005 
	C278.591644,561.283630 277.479980,562.924255 276.103088,564.770264 
	C276.785889,560.151123 277.270264,555.178589 278.755707,550.525635 
	C290.021027,515.238953 309.438049,485.164215 337.038177,460.419556 
	C338.009766,459.548492 339.228058,458.952515 340.669861,458.217529 
	C337.033936,462.534607 333.059418,466.862396 328.702759,471.691559 
	C315.534973,483.805878 305.512482,497.497864 297.467773,513.085449 
	C293.370056,521.164612 288.958740,528.808655 285.841980,536.948364 
	C283.054047,544.229248 281.693604,552.056702 279.703308,559.643005 
z"/>
<path fill="#5025A8" opacity="1.000000" stroke="none" 
	d="
M598.136108,459.006439 
	C597.615845,458.646790 597.095581,458.287109 596.299683,457.552612 
	C595.998047,456.777100 595.972046,456.376465 595.945984,455.975800 
	C597.133057,454.471069 598.948303,453.115540 599.350037,451.424225 
	C599.865845,449.252991 599.230957,446.812653 599.119141,444.486938 
	C598.984863,441.696991 600.190857,439.878723 603.105225,439.888214 
	C624.398193,439.957611 645.691040,440.095062 666.983826,440.222504 
	C667.126709,440.223358 667.268616,440.384552 667.592285,440.761871 
	C646.540894,441.086823 625.308228,441.120758 603.384216,441.259216 
	C602.432068,442.215393 602.171204,443.067047 601.910278,443.918732 
	C601.951843,445.681244 601.993347,447.443756 601.839478,449.989380 
	C600.156982,453.381775 602.738464,457.724365 598.136108,459.006439 
z"/>
<path fill="#5025A8" opacity="1.000000" stroke="none" 
	d="
M402.140381,422.995972 
	C400.994446,423.285950 399.848480,423.575897 398.129852,424.053589 
	C397.042511,424.625671 396.527893,425.010040 396.013245,425.394379 
	C387.032471,429.877625 378.055145,434.367828 369.066101,438.834442 
	C368.047119,439.340790 366.962311,439.714630 365.547119,440.099243 
	C371.080811,436.437683 376.651520,432.071838 382.938232,429.374939 
	C395.562714,423.959167 408.559387,419.404083 421.453217,414.630890 
	C423.272614,413.957397 425.377289,414.054565 427.676086,414.163208 
	C427.990814,414.936584 427.979401,415.341766 427.967987,415.746948 
	C426.503357,415.795929 425.038757,415.844879 422.913818,416.043274 
	C420.172455,416.824432 418.091370,417.456207 416.010315,418.088013 
	C414.949524,418.326202 413.888702,418.564392 412.224121,418.994690 
	C411.087341,419.482910 410.554291,419.779022 410.021271,420.075134 
	C409.464630,420.295593 408.907959,420.516052 407.902283,420.866028 
	C407.453278,420.995514 407.097290,421.027496 407.097290,421.027466 
	C405.832611,421.535828 404.567932,422.044189 402.871399,422.756195 
	C402.439545,422.959839 402.140381,422.995972 402.140381,422.995972 
z"/>
<path fill="#5025A8" opacity="1.000000" stroke="none" 
	d="
M483.693146,411.272064 
	C482.377869,411.234100 481.062622,411.196106 478.989594,410.931244 
	C472.175323,410.804779 466.118805,410.905151 460.062286,411.005524 
	C457.125305,411.159760 454.188324,411.313995 450.419189,411.291260 
	C449.320740,411.003357 449.054443,410.892395 448.788177,410.781464 
	C461.966400,407.250397 475.167145,407.549286 488.580322,410.806091 
	C487.872437,411.188477 486.968018,411.313263 485.297882,411.359131 
	C484.252502,411.277527 483.972839,411.274811 483.693146,411.272064 
z"/>
<path fill="#5025A8" opacity="1.000000" stroke="none" 
	d="
M567.173035,437.014557 
	C562.654724,434.688049 558.136475,432.361511 553.172302,429.640472 
	C551.585693,428.701813 550.444946,428.157684 549.304199,427.613525 
	C548.716736,427.442993 548.129211,427.272461 547.289001,426.644928 
	C547.019043,425.826172 547.001770,425.464417 546.984497,425.102661 
	C555.844604,429.576416 564.704590,434.050140 573.689026,438.846893 
	C573.813416,439.169891 573.673889,439.293701 573.462646,439.205994 
	C572.512695,439.085480 571.773987,439.052673 571.035217,439.019897 
	C570.858276,438.985413 570.681396,438.950928 570.086426,438.606018 
	C568.836609,437.868561 568.004822,437.441559 567.173035,437.014557 
z"/>
<path fill="#5A2BB8" opacity="1.000000" stroke="none" 
	d="
M622.140686,779.199646 
	C633.722046,779.104736 645.627136,779.175110 657.863525,779.224243 
	C646.284668,779.256958 634.374512,779.310974 622.140686,779.199646 
z"/>
<path fill="#5025A8" opacity="1.000000" stroke="none" 
	d="
M363.795563,440.514618 
	C362.940002,441.817108 361.919922,443.329651 360.537079,444.350891 
	C355.104645,448.362762 349.557922,452.219818 343.719360,456.126587 
	C350.078186,450.912201 356.771271,445.705566 363.795563,440.514618 
z"/>
<path fill="#5025A8" opacity="1.000000" stroke="none" 
	d="
M531.170715,420.729065 
	C530.970947,420.753052 530.771240,420.777069 530.081543,420.537720 
	C527.397705,419.172211 525.203735,418.070068 523.009827,416.967957 
	C530.255432,419.332550 537.501038,421.697144 544.904419,424.583740 
	C545.046204,425.280640 545.030212,425.455505 545.014282,425.630341 
	C544.178284,425.441101 543.342346,425.251862 542.056396,424.619629 
	C538.127930,423.027435 534.649292,421.878235 531.170715,420.729065 
z"/>
<path fill="#5025A8" opacity="1.000000" stroke="none" 
	d="
M497.056366,412.877380 
	C495.874146,412.505493 494.691925,412.133636 493.320984,411.526733 
	C498.323425,411.973419 503.514618,412.655060 508.542664,413.621521 
	C507.510162,414.018402 506.640839,414.130493 505.771484,414.242584 
	C504.762482,414.214478 503.753448,414.186401 502.065857,413.939392 
	C499.943604,413.439423 498.500000,413.158417 497.056366,412.877380 
z"/>
<path fill="#5A2BB8" opacity="1.000000" stroke="none" 
	d="
M428.387817,415.789185 
	C427.979401,415.341766 427.990814,414.936584 428.018524,414.227417 
	C428.374786,413.852295 428.714752,413.781158 429.698547,413.776672 
	C432.205994,413.192535 434.069580,412.541718 435.933197,411.890869 
	C436.470337,411.779999 437.007477,411.669098 438.194275,411.658630 
	C439.811890,412.034393 440.779877,412.309753 441.747864,412.585114 
	C437.434479,413.667236 433.121094,414.749329 428.387817,415.789185 
z"/>
<path fill="#5A2BB8" opacity="1.000000" stroke="none" 
	d="
M600.863708,767.164124 
	C601.249817,770.510620 601.546326,773.708679 601.888672,777.206909 
	C601.547791,774.009888 601.160950,770.512817 600.863708,767.164124 
z"/>
<path fill="#5025A8" opacity="1.000000" stroke="none" 
	d="
M581.740906,444.794067 
	C579.325623,443.907654 576.834961,442.701904 574.113220,440.944244 
	C573.812683,440.026123 573.743286,439.659912 573.673950,439.293701 
	C573.673889,439.293701 573.813416,439.169891 573.883545,439.108398 
	C576.524292,440.856171 579.094910,442.665466 581.740906,444.794067 
z"/>
<path fill="#5025A8" opacity="1.000000" stroke="none" 
	d="
M512.165405,415.718536 
	C511.973206,415.747894 511.781006,415.777252 511.291138,415.495605 
	C510.979858,414.767090 510.966248,414.349579 510.952667,413.932068 
	C514.247498,414.687592 517.542358,415.443115 520.904663,416.575256 
	C520.718018,417.145752 520.468506,417.345428 520.223633,417.550934 
	C519.417725,417.640686 518.611816,417.730438 517.255432,417.530090 
	C515.191772,416.732849 513.678589,416.225708 512.165405,415.718536 
z"/>
<path fill="#5025A8" opacity="1.000000" stroke="none" 
	d="
M588.527405,449.886047 
	C586.369263,448.751953 584.147156,447.302673 581.917969,445.509583 
	C584.095032,446.634155 586.279236,448.102539 588.527405,449.886047 
z"/>
<path fill="#5A2BB8" opacity="1.000000" stroke="none" 
	d="
M520.452515,417.833923 
	C520.468506,417.345428 520.718018,417.145752 521.156433,416.793671 
	C521.718933,416.675751 522.097290,416.716003 522.742676,416.862122 
	C525.203735,418.070068 527.397705,419.172211 529.779785,420.533325 
	C526.872498,419.900513 523.776978,419.008728 520.452515,417.833923 
z"/>
<path fill="#5025A8" opacity="1.000000" stroke="none" 
	d="
M593.074341,455.029663 
	C592.048340,454.356445 591.022339,453.683167 589.712952,452.913361 
	C589.222473,452.213348 589.015381,451.609863 588.814758,450.688354 
	C590.718567,451.730011 592.615784,453.089722 594.362671,454.744141 
	C593.832947,455.035767 593.453674,455.032715 593.074341,455.029663 
z"/>
<path fill="#5025A8" opacity="1.000000" stroke="none" 
	d="
M435.589996,411.796417 
	C434.069580,412.541718 432.205994,413.192535 429.958862,413.805847 
	C431.465820,413.079559 433.356323,412.390747 435.589996,411.796417 
z"/>
<path fill="#5025A8" opacity="1.000000" stroke="none" 
	d="
M442.115723,412.679474 
	C440.779877,412.309753 439.811890,412.034393 438.606720,411.666870 
	C440.044708,411.312866 441.719879,411.051086 443.704773,411.173706 
	C444.005524,411.962402 443.996552,412.366730 443.987579,412.771057 
	C443.486237,412.772003 442.984894,412.772919 442.115723,412.679474 
z"/>
<path fill="#5A2BB8" opacity="1.000000" stroke="none" 
	d="
M444.376587,412.815247 
	C443.996552,412.366730 444.005524,411.962402 444.027954,411.254700 
	C445.358643,410.862946 446.675903,410.774597 448.390686,410.733856 
	C449.054443,410.892395 449.320740,411.003357 449.987366,411.280029 
	C448.513702,411.916992 446.639648,412.388184 444.376587,412.815247 
z"/>
<path fill="#5A2BB8" opacity="1.000000" stroke="none" 
	d="
M510.675873,413.845703 
	C510.966248,414.349579 510.979858,414.767090 510.999512,415.497192 
	C509.420319,415.456604 507.835083,415.103394 506.010651,414.496368 
	C506.640839,414.130493 507.510162,414.018402 508.809326,413.833954 
	C509.625793,413.760803 510.012451,413.760071 510.675873,413.845703 
z"/>
<path fill="#5A2BB8" opacity="1.000000" stroke="none" 
	d="
M593.196594,455.301575 
	C593.453674,455.032715 593.832947,455.035767 594.496765,455.032104 
	C594.988708,455.167206 595.196228,455.309021 595.674866,455.713318 
	C595.972046,456.376465 595.998047,456.777100 596.038940,457.373718 
	C595.142090,456.904297 594.230469,456.238861 593.196594,455.301575 
z"/>
<path fill="#5025A8" opacity="1.000000" stroke="none" 
	d="
M668.577271,452.770203 
	C668.314453,452.405670 668.214905,451.901978 668.268921,451.254700 
	C668.528442,451.617737 668.634399,452.124390 668.577271,452.770203 
z"/>
<path fill="#5A2BB8" opacity="1.000000" stroke="none" 
	d="
M545.201843,425.871704 
	C545.030212,425.455505 545.046204,425.280640 545.082397,424.843079 
	C545.531860,424.662445 545.960938,424.744507 546.687256,424.964600 
	C547.001770,425.464417 547.019043,425.826172 547.045288,426.456543 
	C546.499390,426.521088 545.944397,426.317047 545.201843,425.871704 
z"/>
<path fill="#17182D" opacity="1.000000" stroke="none" 
	d="
M598.620422,580.330200 
	C598.637512,580.713745 598.654541,581.097351 598.617249,582.101562 
	C598.775879,584.696655 598.905151,586.684448 599.214539,588.643677 
	C603.293640,614.475769 600.471130,639.642090 589.561951,663.297058 
	C570.896301,703.770935 539.640198,729.714478 495.877716,739.199524 
	C465.299866,745.826904 435.483459,742.135010 407.668091,727.460999 
	C372.368988,708.838745 349.312164,680.264832 340.355377,640.994934 
	C335.069550,617.819885 335.746643,594.531250 342.171356,571.831787 
	C348.281799,550.242737 359.724060,531.352234 376.025696,515.621826 
	C378.138489,513.583130 379.847473,511.126038 381.996643,508.700439 
	C382.816467,507.972534 383.383179,507.406921 384.275452,506.848999 
	C385.590271,505.813843 386.579559,504.771057 387.843384,503.574707 
	C389.091156,502.618591 390.064423,501.816010 391.221313,501.127869 
	C391.998901,500.872528 392.592865,500.502777 393.403259,500.061768 
	C393.619720,499.990509 393.977875,499.708649 394.264435,499.635315 
	C395.548676,498.666870 396.546387,497.771729 397.818451,496.724915 
	C398.736145,496.041779 399.379486,495.510376 400.227325,495.090393 
	C401.113373,494.874359 401.794952,494.546906 402.630188,494.177063 
	C402.783783,494.134735 403.003113,493.903534 403.347534,493.812531 
	C406.176270,492.278290 408.660583,490.835052 411.533844,489.343750 
	C415.936951,487.459229 419.951111,485.622833 424.346039,483.786316 
	C426.971893,482.758545 429.216980,481.730896 431.462067,480.703247 
	C431.462067,480.703278 431.649139,480.689575 432.116516,480.774536 
	C443.944122,479.619019 455.278503,477.978363 466.671326,477.241699 
	C480.209961,476.366302 493.657867,478.123627 506.599030,482.049591 
	C525.567322,487.804047 542.725952,497.192963 557.477722,510.544159 
	C573.918335,525.423767 585.850403,543.376587 593.009949,564.434021 
	C594.818665,569.753662 596.747070,575.032593 598.620422,580.330200 
z"/>
<path fill="#7A4AE8" opacity="1.000000" stroke="none" 
	d="
M391.037720,501.013428 
	C390.064423,501.816010 389.091156,502.618591 387.493286,503.508240 
	C385.895782,504.677338 384.922821,505.759338 383.949890,506.841339 
	C383.383179,507.406921 382.816467,507.972534 381.655334,508.731415 
	C377.679138,511.612610 374.297333,514.300476 370.594543,516.876221 
	C361.621368,510.563232 351.772369,509.244873 341.561768,510.220215 
	C335.654236,510.784515 329.819885,512.144531 323.966370,513.221191 
	C322.674133,513.458801 321.411133,513.940247 320.183838,514.432068 
	C312.435028,517.537292 304.976013,516.690125 297.717621,512.865967 
	C305.512482,497.497864 315.534973,483.805878 328.600220,472.010254 
	C330.385315,471.940369 332.158478,472.611145 333.338287,472.045105 
	C335.517365,470.999695 337.348602,469.229156 339.525238,467.611755 
	C340.701019,468.935455 338.212494,473.899475 344.834961,469.150085 
	C342.114807,473.081268 340.959137,474.751465 339.803467,476.421631 
	C340.003998,476.689789 340.204529,476.957947 340.405060,477.226105 
	C342.103699,476.068024 343.802338,474.909912 345.500977,473.751831 
	C345.704773,473.910034 345.908569,474.068207 346.112366,474.226379 
	C345.366455,475.694763 344.620514,477.163116 343.874603,478.631470 
	C347.956970,475.004730 352.346039,477.947357 356.303162,477.559875 
	C367.604797,476.453186 379.429443,478.707672 389.933014,475.876495 
	C399.067139,473.414368 407.585144,476.021942 416.302338,474.417847 
	C420.301605,473.681946 426.011597,472.980774 427.658997,479.840027 
	C426.997284,480.713898 426.492340,481.050690 425.768494,481.509277 
	C425.232086,482.028015 424.914612,482.424957 424.416443,482.804169 
	C424.235748,482.786469 423.875793,482.834137 423.501129,482.870422 
	C421.865631,482.972717 420.604797,483.038666 418.962830,483.003479 
	C417.179504,482.447632 415.807434,481.786682 414.369476,481.576721 
	C409.967133,480.933807 407.119751,484.430908 408.232300,488.859741 
	C406.329407,490.138397 404.681274,491.212311 402.738220,492.313751 
	C401.658112,492.893402 400.872955,493.445526 400.034302,494.240479 
	C399.980804,494.483337 400.022827,494.978912 400.022827,494.978943 
	C399.379486,495.510376 398.736145,496.041779 397.468140,496.626160 
	C395.918121,496.923309 394.992798,497.167480 393.796570,497.501709 
	C392.930908,498.323273 392.336121,499.054779 391.568481,499.957336 
	C391.168793,500.379944 391.049469,500.674957 391.037720,501.013428 
z"/>
<path fill="#5025A8" opacity="1.000000" stroke="none" 
	d="
M598.728271,579.910522 
	C596.747070,575.032593 594.818665,569.753662 593.009949,564.434021 
	C585.850403,543.376587 573.918335,525.423767 557.477722,510.544159 
	C542.725952,497.192963 525.567322,487.804047 506.599030,482.049591 
	C493.657867,478.123627 480.209961,476.366302 466.671326,477.241699 
	C455.278503,477.978363 443.944122,479.619019 432.203735,480.739990 
	C435.392517,479.449738 438.881866,477.746246 442.544067,477.198730 
	C460.045807,474.582062 477.595398,475.456543 495.566620,477.068848 
	C504.101166,479.692780 512.197754,482.339233 520.853760,485.313354 
	C522.218567,485.901733 523.023926,486.162476 523.829346,486.423218 
	C525.059631,486.939514 526.289917,487.455811 527.745911,488.141022 
	C541.126282,495.250183 553.462280,503.355377 564.439575,513.950073 
	C570.564514,521.921692 576.591797,529.588989 582.234009,537.529907 
	C584.982422,541.398071 587.012024,545.776917 589.593567,550.220337 
	C592.343567,557.619019 594.962158,564.690430 597.338074,571.842529 
	C598.150513,574.287903 598.354309,576.935547 598.728271,579.910522 
z"/>
<path fill="#5A2BB8" opacity="1.000000" stroke="none" 
	d="
M460.436096,411.160400 
	C466.118805,410.905151 472.175323,410.804779 478.597229,410.883118 
	C472.911713,411.146332 466.860840,411.230804 460.436096,411.160400 
z"/>
<path fill="#5A2BB8" opacity="1.000000" stroke="none" 
	d="
M531.459595,420.924988 
	C534.649292,421.878235 538.127930,423.027435 541.796997,424.426056 
	C538.574524,423.490631 535.161438,422.305756 531.459595,420.924988 
z"/>
<path fill="#5025A8" opacity="1.000000" stroke="none" 
	d="
M425.987427,481.387512 
	C426.492340,481.050690 426.997284,480.713898 427.748718,480.199341 
	C428.873993,480.146240 429.752747,480.270844 431.046783,480.549377 
	C429.216980,481.730896 426.971893,482.758545 424.323364,483.548279 
	C423.919891,483.310425 423.875793,482.834137 423.875793,482.834137 
	C423.875793,482.834137 424.235748,482.786469 424.631927,482.662415 
	C425.347870,482.154755 425.667664,481.771149 425.987427,481.387512 
z"/>
<path fill="#5A2BB8" opacity="1.000000" stroke="none" 
	d="
M416.284302,418.286102 
	C418.091370,417.456207 420.172455,416.824432 422.613831,416.128052 
	C420.835480,416.870392 418.696899,417.677307 416.284302,418.286102 
z"/>
<path fill="#7645E1" opacity="1.000000" stroke="none" 
	d="
M497.194275,413.149780 
	C498.500000,413.158417 499.943604,413.439423 501.687317,413.937012 
	C500.435669,413.909790 498.883911,413.665985 497.194275,413.149780 
z"/>
<path fill="#5A2BB8" opacity="1.000000" stroke="none" 
	d="
M512.440918,415.901031 
	C513.678589,416.225708 515.191772,416.732849 516.850403,417.499329 
	C515.569336,417.200317 514.142883,416.641907 512.440918,415.901031 
z"/>
<path fill="#5A2BB8" opacity="1.000000" stroke="none" 
	d="
M549.450684,427.897644 
	C550.444946,428.157684 551.585693,428.701813 552.855591,429.478882 
	C551.855591,429.201782 550.726318,428.691742 549.450684,427.897644 
z"/>
<path fill="#5A2BB8" opacity="1.000000" stroke="none" 
	d="
M573.462708,439.205994 
	C573.743286,439.659912 573.812683,440.026123 573.904297,440.670959 
	C573.073486,440.472778 572.220398,439.995941 571.201294,439.269470 
	C571.773987,439.052673 572.512695,439.085480 573.462708,439.205994 
z"/>
<path fill="#5A2BB8" opacity="1.000000" stroke="none" 
	d="
M567.314697,437.267120 
	C568.004822,437.441559 568.836609,437.868561 569.824646,438.538452 
	C569.139404,438.360748 568.297913,437.940216 567.314697,437.267120 
z"/>
<path fill="#5A2BB8" opacity="1.000000" stroke="none" 
	d="
M410.199951,420.150726 
	C410.554291,419.779022 411.087341,419.482910 411.917786,419.108398 
	C411.603027,419.428772 410.990814,419.827545 410.199951,420.150726 
z"/>
<path fill="#5A2BB8" opacity="1.000000" stroke="none" 
	d="
M396.268311,425.380676 
	C396.527893,425.010040 397.042511,424.625671 397.794556,424.169861 
	C397.529114,424.521240 397.026245,424.944122 396.268311,425.380676 
z"/>
<path fill="#5A2BB8" opacity="1.000000" stroke="none" 
	d="
M483.804779,411.402710 
	C483.972839,411.274811 484.252502,411.277527 484.951294,411.307617 
	C484.885712,411.401184 484.401062,411.467285 483.804779,411.402710 
z"/>
<path fill="#5A2BB8" opacity="1.000000" stroke="none" 
	d="
M407.174927,421.115845 
	C407.097290,421.027496 407.453278,420.995514 407.630615,420.991608 
	C407.807983,420.987701 407.578339,421.235413 407.578339,421.235413 
	C407.578339,421.235413 407.252533,421.204193 407.174927,421.115845 
z"/>
<path fill="#5A2BB8" opacity="1.000000" stroke="none" 
	d="
M402.204834,423.078094 
	C402.140381,422.995972 402.439545,422.959839 402.588684,422.955017 
	C402.737793,422.950165 402.555969,423.183502 402.555969,423.183502 
	C402.555969,423.183502 402.269287,423.160217 402.204834,423.078094 
z"/>
<path fill="#5728B5" opacity="1.000000" stroke="none" 
	d="
M666.889404,743.935913 
	C666.889404,752.106262 666.889404,760.276611 666.889404,768.446899 
	C666.297668,768.513062 665.705933,768.579224 665.114136,768.645325 
	C664.447937,766.029968 663.397949,763.442444 663.206055,760.792786 
	C662.922241,756.874634 660.658752,755.654907 657.328308,755.499573 
	C650.662476,755.188599 643.960815,754.448242 637.331055,754.843384 
	C627.608521,755.422791 618.150391,757.702271 609.946716,763.300415 
	C607.933594,764.674194 606.752258,767.266846 603.759583,769.284668 
	C603.530151,765.776001 603.300659,762.267334 603.249695,758.182922 
	C602.931702,755.982971 602.808533,753.240784 601.873962,752.928711 
	C597.897644,751.601196 593.715759,750.568481 589.543640,750.228210 
	C584.128601,749.786621 578.649231,750.199402 573.202209,750.060303 
	C570.053833,749.979919 566.857910,749.015808 563.781372,749.350464 
	C552.074524,750.623779 540.435669,752.562073 528.716248,753.666504 
	C520.338623,754.456055 511.874023,754.352478 503.446167,754.566162 
	C498.656158,754.687622 493.741760,753.978271 489.094666,754.815674 
	C479.325378,756.576050 469.712372,759.188904 459.996857,761.272888 
	C457.433044,761.822815 454.668579,762.176636 452.100952,761.834595 
	C443.398651,760.675293 434.781616,758.781677 426.058014,757.905457 
	C418.824493,757.178955 410.936127,755.726013 404.331085,757.783447 
	C395.655396,760.485840 387.463654,758.640747 379.328644,758.060791 
	C368.474365,757.286926 357.727295,755.594971 346.789886,756.720642 
	C343.550781,757.054077 340.263824,756.922180 336.998779,757.003479 
	C335.147522,755.642456 333.014404,754.538574 331.495636,752.874084 
	C326.013794,746.866333 320.738739,740.669983 315.497925,734.085815 
	C316.523163,733.250732 317.508972,732.430237 318.337921,732.566162 
	C328.419434,734.219666 338.834259,731.350586 348.832611,735.175842 
	C351.886292,736.344299 355.692871,735.677795 359.151093,735.623657 
	C363.952759,735.548523 368.751740,735.082825 373.550598,735.102356 
	C380.425751,735.130371 387.349182,735.002258 394.160461,735.761597 
	C401.111633,736.536499 408.009888,738.066650 414.819519,739.725037 
	C418.908386,740.720886 422.649170,742.064270 425.309570,737.214600 
	C434.907623,741.319275 444.609985,743.056396 454.658508,743.483582 
	C475.962738,744.389282 497.186737,744.989929 517.219727,735.362732 
	C519.608276,735.664490 521.812866,735.867432 523.988647,735.698608 
	C526.747620,735.484497 530.144470,733.734863 532.116211,734.792114 
	C541.517456,739.833069 550.548401,736.019043 559.173523,733.615845 
	C566.512512,731.570984 573.409607,731.298584 580.717041,732.239197 
	C582.928528,732.523926 585.501526,732.206665 587.524902,731.304199 
	C592.252075,729.195862 593.578979,729.649353 595.653198,734.498840 
	C596.082275,735.501892 597.795227,736.340210 599.029114,736.532959 
	C601.457458,736.912231 603.966248,736.757385 606.439392,736.873047 
	C615.777344,737.309998 624.981262,737.061096 634.014709,733.966675 
	C636.800598,733.012390 640.173523,733.886475 643.256287,733.647461 
	C645.662964,733.460938 648.464539,733.509644 650.342224,732.295959 
	C655.344116,729.062988 659.906860,729.770325 662.773132,735.098450 
	C664.310120,737.955505 665.527710,740.984497 666.889404,743.935913 
z"/>
<path fill="#5426B2" opacity="1.000000" stroke="none" 
	d="
M337.195923,757.283203 
	C340.263824,756.922180 343.550781,757.054077 346.789886,756.720642 
	C357.727295,755.594971 368.474365,757.286926 379.328644,758.060791 
	C387.463654,758.640747 395.655396,760.485840 404.331085,757.783447 
	C410.936127,755.726013 418.824493,757.178955 426.058014,757.905457 
	C434.781616,758.781677 443.398651,760.675293 452.100952,761.834595 
	C454.668579,762.176636 457.433044,761.822815 459.996857,761.272888 
	C469.712372,759.188904 479.325378,756.576050 489.094666,754.815674 
	C493.741760,753.978271 498.656158,754.687622 503.446167,754.566162 
	C511.874023,754.352478 520.338623,754.456055 528.716248,753.666504 
	C540.435669,752.562073 552.074524,750.623779 563.781372,749.350464 
	C566.857910,749.015808 570.053833,749.979919 573.202209,750.060303 
	C578.649231,750.199402 584.128601,749.786621 589.543640,750.228210 
	C593.715759,750.568481 597.897644,751.601196 601.873962,752.928711 
	C602.808533,753.240784 602.931702,755.982971 603.209106,757.805542 
	C599.820679,756.444275 597.247803,757.316040 594.958130,759.826172 
	C588.914673,766.451172 581.928406,768.528687 572.895813,766.163147 
	C568.410400,764.988525 563.170959,766.645874 558.278992,767.091309 
	C555.813599,767.315796 553.363647,767.948853 550.904358,767.961975 
	C536.771118,768.037476 522.583313,767.363220 508.966797,772.460266 
	C507.780243,772.904419 505.793976,772.571411 504.747589,771.814026 
	C496.987213,766.196716 489.378052,770.085083 481.940979,772.292542 
	C479.110199,773.132751 476.867706,775.900452 474.300537,777.709351 
	C473.232086,778.462219 472.086914,779.275330 470.855225,779.599121 
	C464.350098,781.309204 457.881500,783.413086 451.254822,784.334412 
	C444.568848,785.264038 436.815216,787.083923 431.155914,784.681763 
	C423.913147,781.607483 416.776337,781.417236 409.510498,780.428284 
	C405.915649,779.939026 402.219666,780.138123 398.646698,779.553711 
	C391.035278,778.308533 383.487183,776.678955 375.882446,775.387756 
	C374.220764,775.105652 372.341156,775.987366 370.716187,775.630554 
	C365.628448,774.513611 360.599731,773.111389 355.595703,771.656189 
	C355.125031,771.519348 354.554291,770.066711 354.766479,769.501465 
	C356.641663,764.506592 352.989532,764.053101 349.756287,763.066101 
	C345.418518,761.742065 340.241852,762.245056 337.195923,757.283203 
z"/>
<path fill="#5F2FC0" opacity="1.000000" stroke="none" 
	d="
M666.875977,679.924072 
	C666.883911,690.946960 666.891785,701.969910 666.616577,713.297424 
	C663.478638,711.603149 660.784607,708.224243 657.738159,707.869202 
	C649.258362,706.880737 640.788879,710.610413 632.123657,708.754456 
	C631.304749,708.578979 630.288757,709.385132 629.350708,709.694397 
	C623.630005,711.580505 618.143921,712.044128 612.785583,708.249695 
	C611.048645,707.019714 608.455811,706.368652 606.306641,706.478088 
	C601.436035,706.726074 596.603149,707.659485 591.742310,708.200989 
	C590.652161,708.322388 589.499756,708.038330 588.394592,707.838318 
	C586.171997,707.436157 583.955505,706.571594 581.748718,706.609314 
	C578.253784,706.669067 576.531311,704.340332 577.689758,702.038330 
	C579.979187,697.488953 577.755798,693.301575 578.120544,688.665894 
	C583.543884,678.555603 588.825500,668.765808 594.460815,659.036621 
	C596.424561,660.982300 598.733704,662.617249 599.514465,664.799133 
	C601.915222,671.508118 601.687195,671.587402 608.453552,669.171265 
	C608.917053,669.005798 609.416321,668.758118 609.877930,668.797058 
	C615.772522,669.294556 621.720764,669.489319 627.541809,670.449219 
	C636.586609,671.940796 645.135071,671.839417 653.088562,666.393799 
	C656.979980,663.729431 662.173950,666.132935 663.683777,670.772522 
	C664.683289,673.844055 665.807617,676.874939 666.875977,679.924072 
z"/>
<path fill="#5A2BB8" opacity="1.000000" stroke="none" 
	d="
M577.978760,688.986328 
	C577.755798,693.301575 579.979187,697.488953 577.689758,702.038330 
	C576.531311,704.340332 578.253784,706.669067 581.748718,706.609314 
	C583.955505,706.571594 586.171997,707.436157 588.394592,707.838318 
	C589.499756,708.038330 590.652161,708.322388 591.742310,708.200989 
	C596.603149,707.659485 601.436035,706.726074 606.306641,706.478088 
	C608.455811,706.368652 611.048645,707.019714 612.785583,708.249695 
	C618.143921,712.044128 623.630005,711.580505 629.350708,709.694397 
	C630.288757,709.385132 631.304749,708.578979 632.123657,708.754456 
	C640.788879,710.610413 649.258362,706.880737 657.738159,707.869202 
	C660.784607,708.224243 663.478638,711.603149 666.606506,713.760864 
	C666.893982,723.618103 666.908447,733.316528 666.906128,743.475403 
	C665.527710,740.984497 664.310120,737.955505 662.773132,735.098450 
	C659.906860,729.770325 655.344116,729.062988 650.342224,732.295959 
	C648.464539,733.509644 645.662964,733.460938 643.256287,733.647461 
	C640.173523,733.886475 636.800598,733.012390 634.014709,733.966675 
	C624.981262,737.061096 615.777344,737.309998 606.439392,736.873047 
	C603.966248,736.757385 601.457458,736.912231 599.029114,736.532959 
	C597.795227,736.340210 596.082275,735.501892 595.653198,734.498840 
	C593.578979,729.649353 592.252075,729.195862 587.524902,731.304199 
	C585.501526,732.206665 582.928528,732.523926 580.717041,732.239197 
	C573.409607,731.298584 566.512512,731.570984 559.173523,733.615845 
	C550.548401,736.019043 541.517456,739.833069 532.116211,734.792114 
	C530.144470,733.734863 526.747620,735.484497 523.988647,735.698608 
	C521.812866,735.867432 519.608276,735.664490 517.581360,735.287842 
	C535.126282,729.035767 549.548889,718.499756 562.515442,705.858459 
	C567.969177,700.541443 572.841919,694.628418 577.978760,688.986328 
z"/>
<path fill="#5A2BB8" opacity="1.000000" stroke="none" 
	d="
M424.980743,737.068665 
	C422.649170,742.064270 418.908386,740.720886 414.819519,739.725037 
	C408.009888,738.066650 401.111633,736.536499 394.160461,735.761597 
	C387.349182,735.002258 380.425751,735.130371 373.550598,735.102356 
	C368.751740,735.082825 363.952759,735.548523 359.151093,735.623657 
	C355.692871,735.677795 351.886292,736.344299 348.832611,735.175842 
	C338.834259,731.350586 328.419434,734.219666 318.337921,732.566162 
	C317.508972,732.430237 316.523163,733.250732 315.310730,733.809937 
	C306.343201,723.985535 299.163147,713.043274 294.376190,700.307129 
	C299.460541,693.451660 304.855774,696.879150 310.472626,698.607544 
	C315.281403,700.087280 320.389374,700.675659 325.405304,701.364807 
	C327.666077,701.675476 330.041992,701.054443 332.335999,701.234253 
	C339.048218,701.760254 345.739288,702.580750 352.456818,702.982056 
	C353.270386,703.030640 355.132141,700.811646 354.923798,700.332642 
	C352.747437,695.329102 355.257568,691.666565 358.258362,688.221191 
	C364.016052,694.569336 369.365540,700.847412 375.060120,706.795044 
	C388.975037,721.328430 405.558929,731.564453 424.980743,737.068665 
z"/>
<path fill="#6535C8" opacity="1.000000" stroke="none" 
	d="
M666.894409,679.463623 
	C665.807617,676.874939 664.683289,673.844055 663.683777,670.772522 
	C662.173950,666.132935 656.979980,663.729431 653.088562,666.393799 
	C645.135071,671.839417 636.586609,671.940796 627.541809,670.449219 
	C621.720764,669.489319 615.772522,669.294556 609.877930,668.797058 
	C609.416321,668.758118 608.917053,669.005798 608.453552,669.171265 
	C601.687195,671.587402 601.915222,671.508118 599.514465,664.799133 
	C598.733704,662.617249 596.424561,660.982300 594.523438,658.671570 
	C596.815979,648.497314 599.399475,638.748657 602.152588,629.210266 
	C603.260742,629.429016 604.879028,629.742981 605.033569,629.399109 
	C606.777588,625.519409 610.016663,624.860046 613.716797,625.007385 
	C621.989502,625.336670 630.261047,625.886169 638.535156,625.928284 
	C644.815491,625.960205 651.097229,625.140015 657.381775,625.084229 
	C662.921021,625.035095 664.554199,627.077820 665.053772,632.628479 
	C665.277039,635.109192 666.283264,637.519409 666.934204,639.961609 
	C666.927063,652.975464 666.919861,665.989380 666.894409,679.463623 
M607.749939,665.686401 
	C607.531677,665.796875 607.313477,665.907410 607.095215,666.017883 
	C607.176392,666.129517 607.257568,666.241211 607.338806,666.352844 
	C607.526672,666.198730 607.714600,666.044678 607.749939,665.686401 
z"/>
<path fill="#6535C8" opacity="1.000000" stroke="none" 
	d="
M273.165283,632.302307 
	C274.140472,630.283142 275.566681,628.793518 275.940552,627.074951 
	C277.202057,621.276245 280.121704,618.607788 286.135162,617.989380 
	C295.545807,617.021606 304.951965,615.987061 314.333191,614.773438 
	C316.591858,614.481201 319.173859,613.904358 320.861847,612.537842 
	C324.942291,609.234558 328.837097,609.148743 333.473358,612.328491 
	C334.524902,618.072205 335.123138,623.318909 335.858032,628.546448 
	C336.863403,635.697998 337.972656,642.834839 338.774506,650.198242 
	C336.840118,652.370544 334.522400,654.065552 333.623688,656.324951 
	C331.339386,662.067932 329.912476,663.030029 323.699158,662.277222 
	C319.293823,661.743530 314.812195,661.873657 310.383423,661.490479 
	C305.463501,661.064819 300.562714,660.410950 295.658051,659.819641 
	C293.388672,659.546021 290.751984,658.293640 288.948608,659.058044 
	C285.674164,660.445984 282.898315,663.010132 279.914368,665.083313 
	C277.654266,654.297852 275.394196,643.512390 273.165283,632.302307 
z"/>
<path fill="#5F2FC0" opacity="1.000000" stroke="none" 
	d="
M279.977966,665.455383 
	C282.898315,663.010132 285.674164,660.445984 288.948608,659.058044 
	C290.751984,658.293640 293.388672,659.546021 295.658051,659.819641 
	C300.562714,660.410950 305.463501,661.064819 310.383423,661.490479 
	C314.812195,661.873657 319.293823,661.743530 323.699158,662.277222 
	C329.912476,663.030029 331.339386,662.067932 333.623688,656.324951 
	C334.522400,654.065552 336.840118,652.370544 338.956360,650.503418 
	C345.603088,663.059204 351.805115,675.530090 358.007141,688.000916 
	C355.257568,691.666565 352.747437,695.329102 354.923798,700.332642 
	C355.132141,700.811646 353.270386,703.030640 352.456818,702.982056 
	C345.739288,702.580750 339.048218,701.760254 332.335999,701.234253 
	C330.041992,701.054443 327.666077,701.675476 325.405304,701.364807 
	C320.389374,700.675659 315.281403,700.087280 310.472626,698.607544 
	C304.855774,696.879150 299.460541,693.451660 294.283234,699.954651 
	C289.310059,688.640747 284.675812,677.234070 279.977966,665.455383 
z"/>
<path fill="#6B3BD1" opacity="1.000000" stroke="none" 
	d="
M666.951172,639.497192 
	C666.283264,637.519409 665.277039,635.109192 665.053772,632.628479 
	C664.554199,627.077820 662.921021,625.035095 657.381775,625.084229 
	C651.097229,625.140015 644.815491,625.960205 638.535156,625.928284 
	C630.261047,625.886169 621.989502,625.336670 613.716797,625.007385 
	C610.016663,624.860046 606.777588,625.519409 605.033569,629.399109 
	C604.879028,629.742981 603.260742,629.429016 602.171387,628.741760 
	C602.177734,620.034119 602.334900,612.005310 602.492004,603.976440 
	C606.465698,602.598694 606.834900,599.479858 606.488831,595.918213 
	C605.951904,590.391846 606.881470,589.228577 612.442688,589.965820 
	C621.451782,591.160156 630.423523,592.682251 639.365845,594.313721 
	C643.344116,595.039551 646.605225,595.559265 650.343811,592.470825 
	C656.866455,587.082520 662.877075,589.744324 664.728943,598.002563 
	C665.079895,599.567139 665.829102,601.042358 666.675842,602.768799 
	C666.960815,614.996704 666.964539,627.014771 666.951172,639.497192 
z"/>
<path fill="#5A2BB8" opacity="1.000000" stroke="none" 
	d="
M598.290649,459.263306 
	C602.738464,457.724365 600.156982,453.381775 601.801880,450.429016 
	C602.138062,452.648682 602.614197,455.236053 602.408081,457.767853 
	C602.215942,460.126068 600.852905,461.392914 598.290649,459.263306 
z"/>
<path fill="#7A4AE8" opacity="1.000000" stroke="none" 
	d="
M523.817017,486.116150 
	C523.023926,486.162476 522.218567,485.901733 521.156738,485.453491 
	C522.190125,483.727020 523.291260,483.196625 523.817017,486.116150 
z"/>
<path fill="#5A2BB8" opacity="1.000000" stroke="none" 
	d="
M602.052612,443.650116 
	C602.171204,443.067047 602.432068,442.215393 602.925537,441.251221 
	C602.837097,441.886322 602.515991,442.633911 602.052612,443.650116 
z"/>
<path fill="#8050F1" opacity="1.000000" stroke="none" 
	d="
M578.973694,460.153137 
	C578.908752,460.148895 578.989441,459.843414 578.989441,459.843414 
	C578.989441,459.843414 579.038635,460.157379 578.973694,460.153137 
z"/>
<path fill="#7645E1" opacity="1.000000" stroke="none" 
	d="
M297.467773,513.085449 
	C304.976013,516.690125 312.435028,517.537292 320.183838,514.432068 
	C321.411133,513.940247 322.674133,513.458801 323.966370,513.221191 
	C329.819885,512.144531 335.654236,510.784515 341.561768,510.220215 
	C351.772369,509.244873 361.621368,510.563232 370.445831,517.169922 
	C359.520050,529.058960 351.234436,542.371155 344.977539,557.002625 
	C342.632263,556.192322 340.248230,555.478210 337.949738,554.551758 
	C333.011902,552.561584 328.521759,552.605713 323.736023,555.618103 
	C320.620148,557.579285 316.682312,558.394226 313.003021,559.252625 
	C309.776001,560.005432 305.931335,559.136230 304.567322,563.597412 
	C304.509827,563.785400 301.644257,563.738892 300.898010,562.991638 
	C295.792938,557.879761 290.380707,558.324951 284.700500,561.674561 
	C282.577026,562.926758 280.945862,562.940857 279.837769,559.995178 
	C281.693604,552.056702 283.054047,544.229248 285.841980,536.948364 
	C288.958740,528.808655 293.370056,521.164612 297.467773,513.085449 
z"/>
<path fill="#5025A8" opacity="1.000000" stroke="none" 
	d="
M344.831177,557.328125 
	C351.234436,542.371155 359.520050,529.058960 370.766846,517.282104 
	C374.297333,514.300476 377.679138,511.612610 381.402222,508.893738 
	C379.847473,511.126038 378.138489,513.583130 376.025696,515.621826 
	C359.724060,531.352234 348.281799,550.242737 342.171356,571.831787 
	C335.746643,594.531250 335.069550,617.819885 340.355377,640.994934 
	C349.312164,680.264832 372.368988,708.838745 407.668091,727.460999 
	C435.483459,742.135010 465.299866,745.826904 495.877716,739.199524 
	C539.640198,729.714478 570.896301,703.770935 589.561951,663.297058 
	C600.471130,639.642090 603.293640,614.475769 599.214539,588.643677 
	C598.905151,586.684448 598.775879,584.696655 598.694092,582.379639 
	C599.566711,583.457214 600.308105,584.877319 601.089966,587.020630 
	C601.419373,589.162170 601.708313,590.580505 601.997192,591.998840 
	C602.131409,595.685669 602.265625,599.372498 602.445923,603.517883 
	C602.334900,612.005310 602.177734,620.034119 602.001770,628.531494 
	C599.399475,638.748657 596.815979,648.497314 594.169739,658.610962 
	C588.825500,668.765808 583.543884,678.555603 578.120605,688.665894 
	C572.841919,694.628418 567.969177,700.541443 562.515442,705.858459 
	C549.548889,718.499756 535.126282,729.035767 517.384644,735.023926 
	C497.186737,744.989929 475.962738,744.389282 454.658508,743.483582 
	C444.609985,743.056396 434.907623,741.319275 425.309570,737.214600 
	C405.558929,731.564453 388.975037,721.328430 375.060120,706.795044 
	C369.365540,700.847412 364.016052,694.569336 358.258362,688.221191 
	C351.805115,675.530090 345.603088,663.059204 339.219238,650.283203 
	C337.972656,642.834839 336.863403,635.697998 335.858032,628.546448 
	C335.123138,623.318909 334.524902,618.072205 333.814178,612.373779 
	C334.195648,593.181213 337.236664,574.973877 344.831177,557.328125 
z"/>
<path fill="#6B3BD1" opacity="1.000000" stroke="none" 
	d="
M602.150146,591.708984 
	C601.708313,590.580505 601.419373,589.162170 601.153442,587.372559 
	C601.552002,588.473877 601.927490,589.946533 602.150146,591.708984 
z"/>
<path fill="#8050F1" opacity="1.000000" stroke="none" 
	d="
M838.661865,329.011597 
	C838.565491,347.431793 838.487244,365.852112 838.349915,384.272003 
	C838.332581,386.585571 838.003662,388.896790 837.419983,391.734497 
	C835.782349,392.431122 834.168335,393.186554 833.369751,392.673309 
	C829.771423,390.360413 827.333862,392.045105 824.475342,394.202423 
	C822.347046,395.808716 819.521606,397.537750 817.055847,397.468048 
	C806.743103,397.176666 796.519531,396.854614 786.551941,400.273865 
	C785.074890,400.780579 783.119385,400.906372 781.700256,400.371887 
	C777.884521,398.934875 776.722290,401.090424 776.407654,404.033173 
	C776.020691,407.652313 776.117676,411.321533 775.952881,414.966705 
	C775.860168,417.017700 775.628418,419.013000 772.836304,417.001648 
	C772.664551,415.019867 772.347900,413.038452 772.342834,411.056244 
	C772.276794,385.081482 772.237244,359.106567 772.233398,333.131714 
	C772.232361,326.106567 772.387451,325.985413 779.587830,325.900421 
	C783.415222,325.855225 787.244202,325.944641 791.769165,326.329681 
	C800.804321,326.911530 809.142456,327.158691 817.482239,327.309052 
	C817.988708,327.318207 818.509155,326.558411 819.023071,326.156403 
	C823.114380,326.191620 827.205750,326.226837 832.018921,326.560120 
	C834.714478,327.575989 836.688171,328.293793 838.661865,329.011597 
z"/>
<path fill="#6B3BD1" opacity="1.000000" stroke="none" 
	d="
M837.662292,579.027466 
	C837.645752,581.080994 837.629211,583.134521 837.311523,585.762939 
	C835.934875,586.316040 834.186462,586.700134 833.889648,586.208374 
	C831.427307,582.128113 827.739685,580.965759 823.288025,580.963989 
	C820.641724,580.962891 817.953491,580.796570 815.356750,580.313660 
	C804.811340,578.352356 794.387756,578.057861 783.816406,580.614075 
	C778.588867,581.878174 776.053650,584.188171 775.846069,589.646912 
	C775.776306,591.481140 773.875977,593.245789 772.812378,595.042236 
	C772.726807,581.071289 772.641174,567.100342 772.952271,552.761108 
	C774.224182,551.111877 775.717773,549.893616 775.855225,548.537842 
	C776.222961,544.910767 775.920837,541.221741 776.046448,537.562927 
	C776.236572,532.026917 777.795410,530.728577 783.227356,531.806641 
	C787.071045,532.569397 790.721191,533.319641 793.943481,530.071655 
	C794.656555,529.352966 796.082031,529.185608 797.212219,529.060974 
	C806.584229,528.027588 815.960938,527.033142 825.343140,526.096924 
	C828.345947,525.797241 830.309082,526.861511 831.226440,530.122375 
	C831.798584,532.156372 833.467529,533.881836 834.644348,535.745789 
	C835.172302,535.548096 835.700317,535.350342 836.228333,535.152588 
	C836.651489,532.616699 837.074707,530.080872 837.497864,527.544983 
	C837.823914,529.983276 838.459106,532.426147 838.423706,534.859131 
	C838.251953,546.634277 837.899963,558.406738 837.292236,570.872803 
	C837.202515,574.052795 837.432373,576.540100 837.662292,579.027466 
z"/>
<path fill="#7A4AE8" opacity="1.000000" stroke="none" 
	d="
M772.680786,417.447144 
	C775.628418,419.013000 775.860168,417.017700 775.952881,414.966705 
	C776.117676,411.321533 776.020691,407.652313 776.407654,404.033173 
	C776.722290,401.090424 777.884521,398.934875 781.700256,400.371887 
	C783.119385,400.906372 785.074890,400.780579 786.551941,400.273865 
	C796.519531,396.854614 806.743103,397.176666 817.055847,397.468048 
	C819.521606,397.537750 822.347046,395.808716 824.475342,394.202423 
	C827.333862,392.045105 829.771423,390.360413 833.369751,392.673309 
	C834.168335,393.186554 835.782349,392.431122 837.268555,392.137054 
	C837.644348,394.055725 837.772583,396.097229 837.512207,398.629822 
	C834.621582,400.557373 835.722473,401.357056 837.634766,402.013336 
	C837.774475,406.737671 837.914246,411.461975 837.821045,416.998108 
	C837.383484,419.769806 837.031250,421.727325 836.999634,423.689972 
	C836.847473,433.115173 836.781860,442.541779 836.351074,451.905823 
	C834.834961,450.780975 833.282227,449.929535 832.535583,448.618896 
	C829.208191,442.778046 822.852295,441.046021 817.059998,444.545959 
	C815.674988,445.382843 814.104004,446.593750 812.659058,446.540222 
	C802.585876,446.167206 792.507019,445.701355 782.463745,444.862091 
	C776.823120,444.390717 776.086121,444.648010 776.027222,450.518921 
	C775.950317,458.182526 776.188171,465.856049 775.846375,473.505432 
	C775.762634,475.379181 773.952271,477.175781 772.935730,479.007874 
	C772.742798,471.729858 772.414124,464.452362 772.386780,457.173706 
	C772.337646,444.080383 772.469177,430.986389 772.680786,417.447144 
z"/>
<path fill="#6535C8" opacity="1.000000" stroke="none" 
	d="
M772.722900,595.452515 
	C773.875977,593.245789 775.776306,591.481140 775.846069,589.646912 
	C776.053650,584.188171 778.588867,581.878174 783.816406,580.614075 
	C794.387756,578.057861 804.811340,578.352356 815.356750,580.313660 
	C817.953491,580.796570 820.641724,580.962891 823.288025,580.963989 
	C827.739685,580.965759 831.427307,582.128113 833.889648,586.208374 
	C834.186462,586.700134 835.934875,586.316040 837.200745,586.190735 
	C837.453491,598.744446 837.515991,611.445312 837.285767,624.801270 
	C836.279785,626.621460 835.566467,627.786560 835.432861,628.004883 
	C831.896240,627.143250 828.834900,625.346985 826.445923,626.002197 
	C817.417114,628.478638 808.525818,627.886108 799.456116,626.711609 
	C794.396606,626.056335 789.215393,626.134399 784.094849,626.221863 
	C780.107605,626.289978 777.288879,628.139648 776.091125,632.354980 
	C775.682251,633.794128 773.889465,634.840027 772.729004,636.065613 
	C772.697144,622.664673 772.665344,609.263672 772.722900,595.452515 
z"/>
<path fill="#703FD9" opacity="1.000000" stroke="none" 
	d="
M837.677734,527.042480 
	C837.074707,530.080872 836.651489,532.616699 836.228333,535.152588 
	C835.700317,535.350342 835.172302,535.548096 834.644348,535.745789 
	C833.467529,533.881836 831.798584,532.156372 831.226440,530.122375 
	C830.309082,526.861511 828.345947,525.797241 825.343140,526.096924 
	C815.960938,527.033142 806.584229,528.027588 797.212219,529.060974 
	C796.082031,529.185608 794.656555,529.352966 793.943481,530.071655 
	C790.721191,533.319641 787.071045,532.569397 783.227356,531.806641 
	C777.795410,530.728577 776.236572,532.026917 776.046448,537.562927 
	C775.920837,541.221741 776.222961,544.910767 775.855225,548.537842 
	C775.717773,549.893616 774.224182,551.111877 773.087036,552.328857 
	C772.742065,538.080078 772.659058,523.895264 773.033203,509.387787 
	C774.322083,507.761871 775.780396,506.500916 775.871765,505.147675 
	C776.184937,500.508484 776.024841,495.836975 776.033447,491.177765 
	C776.040527,487.362762 777.718506,484.944702 781.557434,483.965515 
	C790.674500,481.640137 799.621948,485.430206 808.687744,484.601685 
	C808.982056,484.574799 809.294495,484.916290 809.611755,484.946259 
	C815.362061,485.489746 821.114380,486.011780 826.528076,486.507446 
	C829.737488,488.546692 833.210938,490.753693 836.749207,493.428955 
	C837.195190,499.951874 837.576294,506.006592 837.957397,512.061279 
	C837.924133,516.887512 837.890869,521.713806 837.677734,527.042480 
M775.039551,514.158142 
	C775.039551,514.158142 774.990356,513.842896 774.990356,513.842896 
	C774.990356,513.842896 774.909180,514.149597 775.039551,514.158142 
z"/>
<path fill="#5F2FC0" opacity="1.000000" stroke="none" 
	d="
M772.628784,636.460388 
	C773.889465,634.840027 775.682251,633.794128 776.091125,632.354980 
	C777.288879,628.139648 780.107605,626.289978 784.094849,626.221863 
	C789.215393,626.134399 794.396606,626.056335 799.456116,626.711609 
	C808.525818,627.886108 817.417114,628.478638 826.445923,626.002197 
	C828.834900,625.346985 831.896240,627.143250 835.432861,628.004883 
	C835.566467,627.786560 836.279785,626.621460 837.179688,625.263733 
	C837.537781,634.477966 837.826965,643.884705 837.842773,653.291809 
	C837.855042,660.563171 837.524719,667.835022 836.996338,675.558411 
	C836.427429,676.006592 836.208801,676.003113 835.688965,675.848877 
	C831.574219,670.277832 826.117798,669.351318 820.026489,669.982727 
	C814.099976,670.596985 808.161682,671.097534 802.227112,671.632446 
	C794.839966,672.298279 787.655090,672.632385 782.188110,665.980896 
	C780.139587,663.488464 778.095947,663.782898 776.880676,667.418823 
	C775.887634,670.390076 774.062683,673.083252 772.606567,675.899658 
	C772.580505,662.884827 772.554565,649.869995 772.628784,636.460388 
z"/>
<path fill="#5A2BB8" opacity="1.000000" stroke="none" 
	d="
M772.500610,676.368896 
	C774.062683,673.083252 775.887634,670.390076 776.880676,667.418823 
	C778.095947,663.782898 780.139587,663.488464 782.188110,665.980896 
	C787.655090,672.632385 794.839966,672.298279 802.227112,671.632446 
	C808.161682,671.097534 814.099976,670.596985 820.026489,669.982727 
	C826.117798,669.351318 831.574219,670.277832 835.695679,676.317505 
	C835.991821,691.618286 835.979919,706.299683 835.650146,720.859375 
	C834.785156,720.367981 833.889832,720.102600 833.742920,719.612854 
	C831.311218,711.505066 825.470337,712.754395 819.054626,713.410828 
	C814.815002,713.844604 809.362732,713.327820 806.209595,710.928589 
	C801.460693,707.314941 797.045654,706.712646 791.834351,707.982971 
	C777.111145,711.572083 775.361206,711.980042 774.888611,726.466614 
	C774.828796,728.298889 773.378723,730.085815 772.572754,731.893738 
	C772.513428,713.541870 772.454102,695.190063 772.500610,676.368896 
z"/>
<path fill="#5426B2" opacity="1.000000" stroke="none" 
	d="
M772.500732,732.311768 
	C773.378723,730.085815 774.828796,728.298889 774.888611,726.466614 
	C775.361206,711.980042 777.111145,711.572083 791.834351,707.982971 
	C797.045654,706.712646 801.460693,707.314941 806.209595,710.928589 
	C809.362732,713.327820 814.815002,713.844604 819.054626,713.410828 
	C825.470337,712.754395 831.311218,711.505066 833.742920,719.612854 
	C833.889832,720.102600 834.785156,720.367981 835.657715,721.330078 
	C835.983154,736.724915 835.983154,751.527405 835.983154,766.329956 
	C835.409302,766.376221 834.835449,766.422485 834.261536,766.468750 
	C833.849976,764.305115 833.234131,762.157288 833.064392,759.974854 
	C832.524719,753.034546 831.530945,752.128662 824.708557,754.144104 
	C819.214478,755.767090 814.033020,757.240295 808.366455,754.312073 
	C806.473511,753.333923 803.530579,754.074646 801.134155,754.452026 
	C796.791382,755.135986 793.076843,754.891968 790.003662,751.006226 
	C787.149841,747.397766 783.171143,747.239624 779.380676,749.831421 
	C778.158081,750.667358 776.874390,751.414001 775.618530,752.201538 
	C775.409058,751.359375 775.199524,750.517273 775.129211,749.067139 
	C774.651306,746.971741 774.034180,745.484375 773.417053,743.996948 
	C773.087585,740.241211 772.758118,736.485535 772.500732,732.311768 
z"/>
<path fill="#7645E1" opacity="1.000000" stroke="none" 
	d="
M836.684448,492.960693 
	C833.210938,490.753693 829.737488,488.546692 826.528076,486.507446 
	C821.114380,486.011780 815.362061,485.489746 809.611755,484.946259 
	C809.294495,484.916290 808.982056,484.574799 808.687744,484.601685 
	C799.621948,485.430206 790.674500,481.640137 781.557434,483.965515 
	C777.718506,484.944702 776.040527,487.362762 776.033447,491.177765 
	C776.024841,495.836975 776.184937,500.508484 775.871765,505.147675 
	C775.780396,506.500916 774.322083,507.761871 773.180542,509.002960 
	C772.800659,499.224579 772.730530,489.508423 772.798096,479.400055 
	C773.952271,477.175781 775.762634,475.379181 775.846375,473.505432 
	C776.188171,465.856049 775.950317,458.182526 776.027222,450.518921 
	C776.086121,444.648010 776.823120,444.390717 782.463745,444.862091 
	C792.507019,445.701355 802.585876,446.167206 812.659058,446.540222 
	C814.104004,446.593750 815.674988,445.382843 817.059998,444.545959 
	C822.852295,441.046021 829.208191,442.778046 832.535583,448.618896 
	C833.282227,449.929535 834.834961,450.780975 836.421936,452.373535 
	C836.779663,466.255737 836.732056,479.608215 836.684448,492.960693 
z"/>
<path fill="#5025A8" opacity="1.000000" stroke="none" 
	d="
M775.670654,752.575867 
	C776.874390,751.414001 778.158081,750.667358 779.380676,749.831421 
	C783.171143,747.239624 787.149841,747.397766 790.003662,751.006226 
	C793.076843,754.891968 796.791382,755.135986 801.134155,754.452026 
	C803.530579,754.074646 806.473511,753.333923 808.366455,754.312073 
	C814.033020,757.240295 819.214478,755.767090 824.708557,754.144104 
	C831.530945,752.128662 832.524719,753.034546 833.064392,759.974854 
	C833.234131,762.157288 833.849976,764.305115 834.261536,766.468750 
	C834.835449,766.422485 835.409302,766.376221 835.983154,766.329956 
	C835.983154,751.527405 835.983154,736.724915 835.975586,721.451721 
	C835.979919,706.299683 835.991821,691.618286 835.996948,676.468323 
	C836.208801,676.003113 836.427429,676.006592 836.975098,676.029480 
	C837.558777,678.009766 838.034302,679.970581 838.035095,681.931580 
	C838.048401,715.030518 838.013855,748.129456 837.961853,781.228394 
	C837.949097,789.341431 837.226868,790.242737 829.099182,789.961243 
	C805.902344,789.157898 787.738464,779.998840 777.530151,758.102173 
	C776.764893,756.460693 776.317749,754.671021 775.670654,752.575867 
z"/>
<path fill="#5728B5" opacity="1.000000" stroke="none" 
	d="
M836.749268,493.428955 
	C836.732056,479.608215 836.779663,466.255737 836.756409,452.435547 
	C836.781860,442.541779 836.847473,433.115173 836.999634,423.689972 
	C837.031250,421.727325 837.383484,419.769806 837.800903,417.472656 
	C838.316406,418.741913 838.881592,420.348328 838.882629,421.955109 
	C838.900818,450.384491 838.856323,478.813873 838.795776,507.243256 
	C838.792969,508.560028 838.513977,509.876221 838.160522,511.626984 
	C837.576294,506.006592 837.195190,499.951874 836.749268,493.428955 
z"/>
<path fill="#6B3BD1" opacity="1.000000" stroke="none" 
	d="
M818.570801,326.014282 
	C818.509155,326.558411 817.988708,327.318207 817.482239,327.309052 
	C809.142456,327.158691 800.804321,326.911530 792.231323,326.403412 
	C800.704041,326.037903 809.411255,325.955017 818.570801,326.014282 
z"/>
<path fill="#5728B5" opacity="1.000000" stroke="none" 
	d="
M838.728271,328.666077 
	C836.688171,328.293793 834.714478,327.575989 832.469727,326.723816 
	C835.143250,324.324524 837.409546,324.643829 838.728271,328.666077 
z"/>
<path fill="#5728B5" opacity="1.000000" stroke="none" 
	d="
M837.788757,578.619995 
	C837.432373,576.540100 837.202515,574.052795 837.217346,571.253967 
	C837.613159,573.365845 837.764221,575.789124 837.788757,578.619995 
z"/>
<path fill="#5025A8" opacity="1.000000" stroke="none" 
	d="
M773.400269,744.332275 
	C774.034180,745.484375 774.651306,746.971741 775.115356,748.740295 
	C774.436096,747.570129 773.909790,746.118835 773.400269,744.332275 
z"/>
<path fill="#7645E1" opacity="1.000000" stroke="none" 
	d="
M837.764893,401.645538 
	C835.722473,401.357056 834.621582,400.557373 837.383606,399.054840 
	C837.727478,399.751770 837.811279,400.514740 837.764893,401.645538 
z"/>
<path fill="#7645E1" opacity="1.000000" stroke="none" 
	d="
M140.576385,736.286865 
	C139.825333,726.803101 143.341980,719.366272 151.693787,714.307129 
	C153.733459,715.543152 155.238998,717.126648 156.937469,717.371460 
	C168.888626,719.093811 180.982742,722.817871 192.575516,715.854187 
	C199.331009,720.890198 203.270599,727.357849 202.430634,736.442322 
	C195.086548,736.223572 188.161575,735.257324 181.216934,735.085632 
	C172.940872,734.880920 164.646530,735.309937 156.362854,735.556580 
	C151.098114,735.713379 145.838364,736.037659 140.576385,736.286865 
z"/>
<path fill="#6B3BD1" opacity="1.000000" stroke="none" 
	d="
M140.468307,736.641968 
	C145.838364,736.037659 151.098114,735.713379 156.362854,735.556580 
	C164.646530,735.309937 172.940872,734.880920 181.216934,735.085632 
	C188.161575,735.257324 195.086548,736.223572 202.400681,736.876709 
	C202.570709,740.738525 202.360291,744.561646 201.672455,748.608398 
	C198.407471,748.554688 195.614563,747.996460 192.833298,748.049561 
	C181.766220,748.260681 170.703888,748.709839 159.637527,748.974854 
	C153.392059,749.124390 147.142120,749.086914 140.894196,749.133606 
	C140.716202,745.088074 140.538223,741.042603 140.468307,736.641968 
z"/>
<path fill="#5F2FC0" opacity="1.000000" stroke="none" 
	d="
M140.958984,749.477051 
	C147.142120,749.086914 153.392059,749.124390 159.637527,748.974854 
	C170.703888,748.709839 181.766220,748.260681 192.833298,748.049561 
	C195.614563,747.996460 198.407471,748.554688 201.601440,748.935059 
	C200.889755,753.047058 197.969482,754.101196 194.165497,755.436829 
	C181.292877,759.956726 168.189865,758.161560 155.169312,757.894287 
	C149.394943,757.775818 142.826721,757.571472 140.958984,749.477051 
z"/>
<path fill="#7E4EEE" opacity="1.000000" stroke="none" 
	d="
M192.428452,715.522949 
	C180.982742,722.817871 168.888626,719.093811 156.937469,717.371460 
	C155.238998,717.126648 153.733459,715.543152 152.028488,714.223633 
	C160.427689,705.337830 184.787994,705.128418 192.428452,715.522949 
z"/>
<path fill="#5728B5" opacity="1.000000" stroke="none" 
	d="
M423.501129,482.870422 
	C423.875793,482.834137 423.919891,483.310425 423.942566,483.548462 
	C419.951111,485.622833 415.936951,487.459229 411.498291,489.090332 
	C411.047272,488.716553 411.020752,488.548096 411.263123,488.137939 
	C414.135986,486.299042 416.739990,484.701813 419.343964,483.104614 
	C420.604797,483.038666 421.865631,482.972717 423.501129,482.870422 
z"/>
<path fill="#5025A8" opacity="1.000000" stroke="none" 
	d="
M410.994263,488.379669 
	C411.020752,488.548096 411.047272,488.716553 411.109375,489.138428 
	C408.660583,490.835052 406.176270,492.278290 403.343872,493.542664 
	C403.008179,493.004608 403.020660,492.645416 403.033142,492.286194 
	C404.681274,491.212311 406.329407,490.138397 408.538574,488.789398 
	C409.731171,488.469421 410.362732,488.424530 410.994263,488.379669 
z"/>
<path fill="#5025A8" opacity="1.000000" stroke="none" 
	d="
M384.275452,506.848999 
	C384.922821,505.759338 385.895782,504.677338 387.218781,503.661804 
	C386.579559,504.771057 385.590271,505.813843 384.275452,506.848999 
z"/>
<path fill="#5025A8" opacity="1.000000" stroke="none" 
	d="
M394.067444,497.411652 
	C394.992798,497.167480 395.918121,496.923309 397.193787,496.777893 
	C396.546387,497.771729 395.548676,498.666870 394.266083,499.346130 
	C394.009949,498.557404 394.038696,497.984528 394.067444,497.411652 
z"/>
<path fill="#5728B5" opacity="1.000000" stroke="none" 
	d="
M402.738220,492.313782 
	C403.020660,492.645416 403.008179,493.004608 402.999420,493.633667 
	C403.003113,493.903534 402.783783,494.134735 402.231445,494.131775 
	C401.148651,494.085083 400.618225,494.041351 400.087769,493.997620 
	C400.872955,493.445526 401.658112,492.893402 402.738220,492.313782 
z"/>
<path fill="#5728B5" opacity="1.000000" stroke="none" 
	d="
M393.796570,497.501709 
	C394.038696,497.984528 394.009949,498.557404 393.979523,499.419464 
	C393.977875,499.708649 393.619720,499.990509 393.042419,499.973389 
	C392.223846,499.899567 391.982574,499.842926 391.741333,499.786255 
	C392.336121,499.054779 392.930908,498.323273 393.796570,497.501709 
z"/>
<path fill="#5025A8" opacity="1.000000" stroke="none" 
	d="
M400.034302,494.240479 
	C400.618225,494.041351 401.148651,494.085083 402.077820,494.174133 
	C401.794952,494.546906 401.113373,494.874359 400.227295,495.090393 
	C400.022827,494.978912 399.980804,494.483337 400.034302,494.240479 
z"/>
<path fill="#5025A8" opacity="1.000000" stroke="none" 
	d="
M391.568481,499.957336 
	C391.982574,499.842926 392.223846,499.899567 392.825989,500.044647 
	C392.592865,500.502777 391.998901,500.872528 391.221313,501.127869 
	C391.049469,500.674957 391.168793,500.379944 391.568481,499.957336 
z"/>
<path fill="#8050F1" opacity="1.000000" stroke="none" 
	d="
M411.263123,488.137939 
	C410.362732,488.424530 409.731171,488.469421 408.793335,488.584656 
	C407.119751,484.430908 409.967133,480.933807 414.369476,481.576721 
	C415.807434,481.786682 417.179504,482.447632 418.962830,483.003479 
	C416.739990,484.701813 414.135986,486.299042 411.263123,488.137939 
z"/>
<path fill="#5728B5" opacity="1.000000" stroke="none" 
	d="
M425.768524,481.509308 
	C425.667664,481.771149 425.347870,482.154755 424.812622,482.680115 
	C424.914612,482.424957 425.232086,482.028015 425.768524,481.509308 
z"/>
<path fill="#5F2FC0" opacity="1.000000" stroke="none" 
	d="
M607.826233,665.788513 
	C607.714600,666.044678 607.526672,666.198730 607.338806,666.352844 
	C607.257568,666.241211 607.176392,666.129517 607.095215,666.017883 
	C607.313477,665.907410 607.531677,665.796875 607.826233,665.788513 
z"/>
<path fill="#7645E1" opacity="1.000000" stroke="none" 
	d="
M774.974365,514.153870 
	C774.909180,514.149597 774.990356,513.842896 774.990356,513.842896 
	C774.990356,513.842896 775.039551,514.158142 774.974365,514.153870 
z"/>
</svg>